<?xml version="1.0" encoding="UTF-8"?>
<svg id="E" xmlns="http://www.w3.org/2000/svg" viewBox="0 0 453.9 247.14">
  <defs>
    <style>
      .cls-1 {
        fill: none;
      }

      .cls-2 {
        fill: #fff;
      }
    </style>
  </defs>
  <g>
    <path class="cls-1" d="M206.68,22.96c-10.08,0-23.86,1.59-23.86,28.55,0,14.05,3.36,22.18,11.22,25.72,5.74,2.56,12.82,2.56,16.79,2.56h4.95V22.96h-9.1Z"/>
    <path class="cls-1" d="M197.31,81.73c-15.82,3.8-18.03,18.21-18.03,30.93,0,29.87,14.85,32.61,24.66,32.61h11.84v-64.78h-6.63c-5.48,0-8.22.09-11.84,1.24Z"/>
  </g>
  <path class="cls-2" d="M301.69,100.91l-.35,5.83c-1.06,17.94-11.22,38.53-43.66,38.53h-14.41v-60.89h.01v-.71h-.01V22.96h14.85c32.97,0,40.92,20.5,41.98,37.03l.35,5.48h.71l-1.59-43.22h-94.58c-28.72,0-47.99,9.63-47.99,29.25,0,12.82,9.28,26.78,44.99,28.37.18,0-.09.18,0,.18-32.61.71-50.47,11.4-50.47,33.41,0,24.39,21.56,32.52,48.7,32.52h99.89l2.3-45.07h-.71ZM216.12,145.27h-11.84c-9.81,0-24.66-2.74-24.66-32.61,0-12.73,2.21-27.13,18.03-30.93,3.62-1.15,6.36-1.24,11.84-1.24h6.63v64.78ZM216.12,79.78h-4.95c-3.98,0-11.05,0-16.79-2.56-7.87-3.54-11.22-11.67-11.22-25.72,0-26.96,13.79-28.55,23.86-28.55h9.1v56.83ZM257.67,79.2c-2.39.53-6.19.71-8.66.71h-5.73v.71h5.73c1.94,0,6.19.09,8.93.62,9.37,1.94,14.85,10.78,15.55,24.83h.71v-51.7h-.71c-.62,11.4-6.01,22.54-15.82,24.83Z"/>
  <g>
    <path class="cls-2" d="M25.41,169.97h12.15c7.68,0,12.51,3.39,12.51,10.48,0,5.42-2.98,8.58-8.1,9.71,5.12.95,8.1,4.05,8.1,9.83,0,7.03-5.12,10.36-12.98,10.36h-11.67v-40.38ZM35.41,173.3h-4.59v15.19h4.76c5.9,0,8.87-2.44,8.87-7.68s-2.86-7.5-9.05-7.5ZM35.41,191.82h-4.59v15.19h4.76c5.9,0,8.87-2.44,8.87-7.68s-2.86-7.5-9.05-7.5Z"/>
    <path class="cls-2" d="M74.18,169.97l10.6,40.38h-6.02l-2.2-9.71h-12.15l-2.2,9.71h-5.72l10.6-40.38h7.09ZM65.13,197.3h10.66l-4.41-19.18-.66-4.94h-.48l-.71,4.94-4.41,19.18Z"/>
    <path class="cls-2" d="M117.41,181.93c0,7.03-3.69,10.9-9.83,11.73l10.84,16.68h-6.01l-9.35-15.96h-4.88v15.96h-5.42v-40.38h12.15c7.68,0,12.51,3.99,12.51,11.97ZM102.76,173.3h-4.59v17.75h5.18c5.6-.12,8.46-2.68,8.46-8.93s-2.86-8.81-9.05-8.81Z"/>
    <path class="cls-2" d="M159.39,173.3h-15.66v14.53h14.11v3.39h-14.11v15.78h15.66v3.33h-21.08v-40.38h21.08v3.33Z"/>
    <path class="cls-2" d="M177.56,191.94l-1.67,4.82-6.55,13.58h-5.54l10.36-20.61-10.01-19.77h5.9l6.13,12.86,1.67,4.82h.48l1.67-4.82,6.19-12.86h5.6l-10,19.77,10.36,20.61h-5.84l-6.55-13.58-1.73-4.82h-.48Z"/>
    <path class="cls-2" d="M197.5,190.15c0-13.7,3.45-20.61,14.29-20.61,2.98,0,5.78.3,8.46.89l-.6,3.46c-2.56-.54-4.47-.71-6.49-.71-8.1,0-10.01,5.12-10.01,16.97s1.91,16.85,10.54,16.85c2.44,0,5.24-.36,7.03-2.03-.18,2.8-2.62,5.66-9.17,5.66-10.9,0-14.06-6.73-14.06-20.49Z"/>
    <path class="cls-2" d="M250.15,173.3h-15.66v14.53h14.11v3.39h-14.11v15.78h15.66v3.33h-21.08v-40.38h21.08v3.33Z"/>
    <path class="cls-2" d="M263.96,207.01h14.41v3.33h-19.83v-40.38h5.42v37.04Z"/>
    <path class="cls-2" d="M289.99,207.01h14.41v3.33h-19.83v-40.38h5.42v37.04Z"/>
    <path class="cls-2" d="M332.92,173.3h-15.66v14.53h14.11v3.39h-14.11v15.78h15.66v3.33h-21.08v-40.38h21.08v3.33Z"/>
    <path class="cls-2" d="M346.02,173.72h-.6l1.07,14v22.63h-5.18v-40.38h7.62l15.84,36.63h.6l-1.07-14v-22.63h5.24v40.38h-7.68l-15.84-36.63Z"/>
    <path class="cls-2" d="M379.49,190.15c0-13.7,3.45-20.61,14.29-20.61,2.98,0,5.78.3,8.46.89l-.6,3.46c-2.56-.54-4.47-.71-6.49-.71-8.1,0-10.01,5.12-10.01,16.97s1.91,16.85,10.54,16.85c2.44,0,5.24-.36,7.03-2.03-.18,2.8-2.62,5.66-9.17,5.66-10.9,0-14.05-6.73-14.05-20.49Z"/>
    <path class="cls-2" d="M432.13,173.3h-15.66v14.53h14.11v3.39h-14.11v15.78h15.66v3.33h-21.08v-40.38h21.08v3.33Z"/>
  </g>
</svg>